<?xml version="1.0" standalone="no"?>
<!DOCTYPE svg PUBLIC "-//W3C//DTD SVG 20010904//EN"
 "http://www.w3.org/TR/2001/REC-SVG-20010904/DTD/svg10.dtd">
<svg version="1.0" xmlns="http://www.w3.org/2000/svg"
 width="860.000000pt" height="660.000000pt" viewBox="0 0 860.000000 660.000000"
 preserveAspectRatio="xMidYMid meet">
<metadata>
Created by potrace 1.16, written by Peter Selinger 2001-2019
</metadata>
<g transform="translate(0.000000,660.000000) scale(0.100000,-0.100000)"
fill="#000000" stroke="none">
<path d="M4245 6181 c-92 -42 -165 -202 -229 -501 -4 -19 -17 -29 -57 -43 -90
-32 -163 -117 -199 -232 -9 -27 -15 -140 -19 -335 l-6 -295 -1205 0 c-1229 -1
-1295 -2 -1589 -41 -353 -46 -566 -126 -621 -234 -25 -49 -25 -83 0 -139 56
-122 258 -283 553 -441 267 -143 858 -308 1466 -410 387 -65 817 -98 1291
-100 l155 0 18 -147 c9 -82 28 -202 42 -268 63 -300 193 -1374 173 -1426 -5
-12 -29 -18 -105 -23 -306 -21 -621 -99 -715 -177 -32 -25 -38 -37 -38 -69 0
-138 385 -379 763 -476 l108 -27 -7 -44 c-9 -60 13 -164 46 -216 43 -69 100
-92 225 -92 127 0 183 24 230 99 27 44 30 58 33 151 l4 102 77 18 c320 75 672
264 771 413 53 81 33 130 -73 181 -127 60 -354 109 -625 135 -79 8 -144 15
-146 17 -18 20 129 1223 169 1393 18 75 51 286 61 384 l7 72 161 0 c834 3
1560 107 2286 329 339 103 473 165 730 336 253 168 352 304 302 418 -50 112
-261 194 -623 241 -294 39 -359 40 -1594 41 l-1210 0 -6 290 c-6 303 -11 342
-59 435 -35 67 -144 149 -200 150 -10 0 -16 10 -18 28 -6 78 -63 275 -104 357
-41 80 -81 129 -122 149 -43 20 -52 20 -101 -3z m135 -1461 c22 -11 52 -39 67
-62 l28 -42 3 -339 c3 -330 2 -340 -19 -384 -51 -106 -198 -137 -286 -60 -62
55 -63 60 -63 431 0 212 4 345 11 363 14 37 57 82 94 99 45 20 120 17 165 -6z"/>
</g>
</svg>
